<svg width="512" height="512" viewBox="0 0 512 512" fill="none" xmlns="http://www.w3.org/2000/svg">
<rect width="512" height="512" rx="256" fill="#FF500F"/>
<path d="M270.39 97.2829C275.515 97.7813 280.445 98.2903 285.179 98.8093C290.325 99.3773 295.83 100.704 301.106 103.39C319.668 112.976 336.12 126.106 349.506 142.015C362.59 157.834 372.403 176.027 378.388 195.561C380.098 201.258 380.406 206.913 379.999 212.085C379.757 215.142 378.427 229.314 377.378 240.455L376.946 245.043C386.433 248.491 394.45 255.032 399.668 263.58C404.887 272.128 406.994 282.172 405.64 292.046C400.45 331.301 393.45 362.941 388.255 383.337C382.879 404.407 364.144 419.034 341.839 418.794C321.441 418.57 288.585 417.189 239.698 412.435C190.811 407.682 158.304 402.708 138.238 398.996C116.264 394.931 100.718 376.842 99.836 355.002C98.8102 329.493 98.6009 285.638 103.634 222.792C105.315 201.769 121.407 184.815 142.327 182.07L143.912 169.168C145.734 154.163 147.816 137.057 148.766 131.592C152.782 108.36 172.896 92.1016 196.731 92.6255C213.918 92.9904 238.504 94.1824 270.39 97.2829ZM211.087 211.438C185.798 209.507 164.319 208.82 148.602 208.645C139.371 208.533 131.619 215.496 130.853 224.992C125.908 286.79 126.132 329.583 127.119 354.006C127.499 363.438 133.939 370.8 143.194 372.512C162.356 376.061 194.071 380.931 242.298 385.621C290.526 390.31 322.578 391.64 342.065 391.849C351.518 391.949 359.394 385.953 361.756 376.7C366.746 357.136 373.516 326.536 378.546 288.497C379.767 279.323 373.685 271.158 364.591 269.563C343.643 265.881 310.715 260.872 265.605 256.235C260.095 255.674 254.805 253.788 250.199 250.745C245.593 247.701 241.811 243.59 239.183 238.775L231.616 224.86C227.413 217.134 219.656 212.088 211.087 211.438ZM185.265 145.149C184.716 145.096 184.225 145.498 184.186 146.049C183.867 150.59 184.383 155.155 185.712 159.516C187.138 164.195 189.471 168.549 192.58 172.326C195.688 176.104 199.51 179.233 203.827 181.533C208.144 183.834 212.873 185.261 217.742 185.735C222.611 186.208 227.526 185.719 232.205 184.293C236.885 182.867 241.237 180.533 245.015 177.425C248.793 174.317 251.921 170.495 254.222 166.177C256.366 162.154 257.752 157.775 258.314 153.257C258.382 152.709 257.979 152.22 257.429 152.166L185.265 145.149ZM273.329 153.707C272.78 153.654 272.29 154.055 272.251 154.606C271.932 159.148 272.448 163.712 273.777 168.073C275.203 172.752 277.536 177.106 280.644 180.884C283.753 184.661 287.575 187.79 291.892 190.091C296.209 192.391 300.937 193.819 305.806 194.293C310.674 194.766 315.589 194.276 320.269 192.85C324.949 191.424 329.302 189.09 333.08 185.982C336.857 182.874 339.986 179.052 342.287 174.735C343.959 171.597 345.17 168.242 345.889 164.774C346.337 162.611 344.706 160.648 342.508 160.434L273.329 153.707Z" fill="white"/>
</svg>
